<svg id="Grupo_7718" data-name="Grupo 7718" xmlns="http://www.w3.org/2000/svg" xmlns:xlink="http://www.w3.org/1999/xlink" width="324.605" height="33.617" viewBox="0 0 324.605 33.617">
  <defs>
    <linearGradient id="linear-gradient" x1="-0.161" y1="0.616" x2="5.391" y2="-0.356" gradientUnits="objectBoundingBox">
      <stop offset="0" stop-color="#f2c674"/>
      <stop offset="0.164" stop-color="#f1c36f"/>
      <stop offset="0.358" stop-color="#f0bc60"/>
      <stop offset="0.567" stop-color="#eeb148"/>
      <stop offset="0.785" stop-color="#eca128"/>
      <stop offset="1" stop-color="#e98f00"/>
    </linearGradient>
    <linearGradient id="linear-gradient-2" x1="-1.704" y1="0.849" x2="5.989" y2="-0.366" xlink:href="#linear-gradient"/>
    <linearGradient id="linear-gradient-3" x1="-1.828" y1="1.091" x2="3.203" y2="-0.157" xlink:href="#linear-gradient"/>
    <linearGradient id="linear-gradient-4" x1="-4.252" y1="1.063" x2="3.043" y2="0.161" xlink:href="#linear-gradient"/>
    <linearGradient id="linear-gradient-5" x1="-5.593" y1="1.463" x2="2.1" y2="0.248" xlink:href="#linear-gradient"/>
    <linearGradient id="linear-gradient-6" x1="-10.38" y1="1.637" x2="1.538" y2="0.371" xlink:href="#linear-gradient"/>
  </defs>
  <path id="Trazado_1858" data-name="Trazado 1858" d="M824.479,63.51V32.31h8.788V55.776h11.82V63.51Z" transform="translate(-824.479 -30.552)" fill="#603e85"/>
  <path id="Trazado_1859" data-name="Trazado 1859" d="M858.008,63.51l12.26-31.2h9.36l12.3,31.2h-9.184l-1.933-5.449h-12.04l-1.889,5.449ZM871.19,51.162H878.4l-3.6-10.239Z" transform="translate(-835.422 -30.552)" fill="#603e85"/>
  <path id="Trazado_1860" data-name="Trazado 1860" d="M912.606,63.51V32.31h8.789v31.2Z" transform="translate(-853.24 -30.552)" fill="#603e85"/>
  <path id="Trazado_1861" data-name="Trazado 1861" d="M932.828,63.51V32.31h8.789V45.889l9.491-13.579h9.755L950.141,46.767l12.3,16.743H951.592L941.617,48.7V63.51Z" transform="translate(-859.84 -30.552)" fill="#603e85"/>
  <path id="Trazado_1862" data-name="Trazado 1862" d="M976.47,63.51l12.26-31.2h9.359l12.3,31.2h-9.184l-1.933-5.449h-12.04l-1.89,5.449Zm13.182-12.348h7.207l-3.6-10.239Z" transform="translate(-874.083 -30.552)" fill="#603e85"/>
  <path id="Trazado_1863" data-name="Trazado 1863" d="M1044.245,63.51V32.31h8.832l8,16.127,8-16.127h8.656v31.2h-8.349V45.932l-5.405,11.074H1058l-5.4-11.029V63.51Z" transform="translate(-896.203 -30.552)" fill="url(#linear-gradient)"/>
  <path id="Trazado_1864" data-name="Trazado 1864" d="M1111.714,67.512a12.815,12.815,0,0,1-4.923-.924A11.358,11.358,0,0,1,1102.924,64a11.769,11.769,0,0,1-2.527-3.977,13.827,13.827,0,0,1-.9-5.075,13.117,13.117,0,0,1,.9-4.9,11.94,11.94,0,0,1,2.549-3.955,11.574,11.574,0,0,1,3.844-2.615,12.251,12.251,0,0,1,4.79-.922,12.882,12.882,0,0,1,4.988.922,10.694,10.694,0,0,1,3.8,2.637,11.864,11.864,0,0,1,2.439,4.109,15.9,15.9,0,0,1,.857,5.383V57.1H1107.89a5.315,5.315,0,0,0,1.451,2.878,3.7,3.7,0,0,0,2.636.989,4.343,4.343,0,0,0,3.735-2.022l7.515,1.67a10.146,10.146,0,0,1-2.572,3.647,12.163,12.163,0,0,1-4,2.395A14.071,14.071,0,0,1,1111.714,67.512Zm-.132-19.115a3.334,3.334,0,0,0-2.461.966,5.269,5.269,0,0,0-1.318,2.812h7.383a5.225,5.225,0,0,0-1.23-2.812A3.14,3.14,0,0,0,1111.581,48.4Z" transform="translate(-914.235 -33.894)" fill="url(#linear-gradient-2)"/>
  <path id="Trazado_1865" data-name="Trazado 1865" d="M1139.941,66.852V43.211h7.6l.219,3.208a7.488,7.488,0,0,1,2.68-2.812,7.6,7.6,0,0,1,7.8.044,7.628,7.628,0,0,1,2.747,3.119,7.847,7.847,0,0,1,3.031-3.076,8.8,8.8,0,0,1,4.483-1.142,8.033,8.033,0,0,1,4.482,1.23,7.852,7.852,0,0,1,2.9,3.537,13.56,13.56,0,0,1,1.01,5.471V66.852h-8.217V53.8a4.5,4.5,0,0,0-.791-2.768,2.467,2.467,0,0,0-2.066-1.056,2.882,2.882,0,0,0-1.692.506,3.667,3.667,0,0,0-1.165,1.362,4.228,4.228,0,0,0-.439,1.956V66.852h-8.218V53.8a4.487,4.487,0,0,0-.79-2.791,2.529,2.529,0,0,0-2.11-1.033,2.884,2.884,0,0,0-1.692.506,3.474,3.474,0,0,0-1.142,1.362,4.405,4.405,0,0,0-.417,1.956V66.852Z" transform="translate(-927.434 -33.894)" fill="url(#linear-gradient-3)"/>
  <path id="Trazado_1866" data-name="Trazado 1866" d="M1200.673,62.658V29.7h8.217V41.741a8.342,8.342,0,0,1,2.988-2.482,8.623,8.623,0,0,1,3.911-.9,9.024,9.024,0,0,1,4.088.944,10.2,10.2,0,0,1,3.3,2.637,12.725,12.725,0,0,1,2.2,3.933,15.183,15.183,0,0,1-.044,9.8,12.617,12.617,0,0,1-2.33,4,10.871,10.871,0,0,1-3.493,2.68,9.823,9.823,0,0,1-4.329.967,8.286,8.286,0,0,1-3.91-.9,7.4,7.4,0,0,1-2.813-2.615l-.176,2.856Zm12.612-6.723a4.171,4.171,0,0,0,2.329-.659,4.662,4.662,0,0,0,1.6-1.8,5.959,5.959,0,0,0,0-5.185,4.666,4.666,0,0,0-1.6-1.8,4.17,4.17,0,0,0-2.329-.659,4.09,4.09,0,0,0-2.285.659,4.5,4.5,0,0,0-1.582,1.8,6.172,6.172,0,0,0,0,5.185,4.5,4.5,0,0,0,1.582,1.8A4.09,4.09,0,0,0,1213.285,55.935Z" transform="translate(-947.255 -29.7)" fill="url(#linear-gradient-4)"/>
  <path id="Trazado_1867" data-name="Trazado 1867" d="M1254.964,67.512a12.812,12.812,0,0,1-4.922-.924A11.36,11.36,0,0,1,1246.174,64a11.755,11.755,0,0,1-2.527-3.977,13.837,13.837,0,0,1-.9-5.075,13.127,13.127,0,0,1,.9-4.9,11.939,11.939,0,0,1,2.549-3.955,11.565,11.565,0,0,1,3.845-2.615,12.246,12.246,0,0,1,4.79-.922,12.881,12.881,0,0,1,4.988.922,10.694,10.694,0,0,1,3.8,2.637,11.859,11.859,0,0,1,2.439,4.109,15.908,15.908,0,0,1,.857,5.383V57.1H1251.14a5.315,5.315,0,0,0,1.45,2.878,3.7,3.7,0,0,0,2.637.989,4.343,4.343,0,0,0,3.735-2.022l7.515,1.67a10.146,10.146,0,0,1-2.571,3.647,12.165,12.165,0,0,1-4,2.395A14.072,14.072,0,0,1,1254.964,67.512Zm-.132-19.115a3.335,3.335,0,0,0-2.461.966,5.271,5.271,0,0,0-1.318,2.812h7.383a5.224,5.224,0,0,0-1.23-2.812A3.137,3.137,0,0,0,1254.831,48.4Z" transform="translate(-960.986 -33.894)" fill="url(#linear-gradient-5)"/>
  <path id="Trazado_1868" data-name="Trazado 1868" d="M1283.19,67.022V43.381h7.6l.264,3.823a7.28,7.28,0,0,1,2.328-3.076,5.6,5.6,0,0,1,3.385-1.055,4.886,4.886,0,0,1,2.021.4L1298,51.685a6.384,6.384,0,0,0-2.021-.307q-4.572,0-4.57,4.79V67.022Z" transform="translate(-974.185 -34.064)" fill="url(#linear-gradient-6)"/>
</svg>
